<?xml version="1.0" standalone="no"?>
<!DOCTYPE svg PUBLIC "-//W3C//DTD SVG 20010904//EN"
 "http://www.w3.org/TR/2001/REC-SVG-20010904/DTD/svg10.dtd">
<svg version="1.0" xmlns="http://www.w3.org/2000/svg"
 width="1600.000000pt" height="900.000000pt" viewBox="0 0 1600.000000 900.000000"
 preserveAspectRatio="xMidYMid meet">

<g transform="translate(0.000000,900.000000) scale(0.100000,-0.100000)"
fill="#000000" stroke="none">
<path d="M3010 5174 c-226 -14 -623 -62 -615 -75 3 -4 -3 -5 -13 -2 -35 9
-506 -100 -600 -139 -15 -6 -33 -10 -41 -9 -8 1 -10 -2 -5 -10 4 -8 3 -10 -5
-5 -13 8 -73 -12 -296 -99 -172 -68 -378 -167 -515 -247 -90 -54 -270 -168
-270 -173 0 -1 52 15 115 36 116 39 317 97 364 105 14 3 42 9 61 14 237 60
649 119 943 135 l107 6 0 -1166 0 -1165 888 1 c869 1 939 3 1124 33 65 11 259
77 253 87 -3 5 1 6 9 3 19 -7 156 66 247 133 210 154 368 366 443 595 50 154
59 218 53 386 -6 176 -20 253 -71 379 -19 48 -33 89 -30 92 2 2 43 -14 91 -36
49 -23 127 -60 176 -82 48 -23 91 -41 96 -41 5 0 22 -6 38 -14 44 -23 200 -86
212 -86 6 0 25 -6 43 -14 70 -31 337 -119 458 -152 36 -9 66 -18 68 -19 3 -3
200 -590 338 -1010 48 -148 91 -272 95 -275 4 -3 69 -3 144 0 l137 5 67 140
c36 78 85 181 108 230 23 50 65 140 93 200 29 61 65 137 80 170 15 33 53 114
84 179 31 66 54 126 51 133 -2 8 -1 12 4 8 5 -3 11 0 13 6 3 8 92 11 303 10
165 0 352 3 415 8 63 4 120 6 127 4 7 -3 15 -15 19 -26 4 -12 25 -60 47 -107
22 -47 66 -140 97 -207 31 -68 61 -119 65 -115 5 4 5 1 1 -5 -4 -7 0 -25 8
-40 9 -16 51 -103 95 -195 43 -92 82 -164 86 -160 5 4 5 2 1 -5 -9 -16 74
-184 87 -176 6 3 7 1 3 -6 -4 -6 -4 -20 -1 -31 6 -20 14 -20 152 -18 l145 3
28 80 c15 44 117 351 226 683 193 586 200 604 226 609 16 3 25 10 21 16 -3 6
-1 7 6 3 15 -9 53 3 46 15 -3 5 0 6 8 3 12 -4 111 30 202 71 120 54 234 109
255 123 14 9 31 17 38 18 7 1 43 20 80 42 68 40 286 152 296 152 3 0 29 11 56
24 27 13 52 21 55 16 3 -4 -15 -50 -39 -101 -24 -52 -67 -146 -96 -209 -29
-63 -72 -157 -96 -208 -24 -52 -44 -96 -44 -99 0 -3 -13 -32 -30 -64 -16 -33
-30 -62 -31 -67 -1 -4 -10 -24 -20 -45 -11 -21 -17 -43 -13 -50 4 -7 4 -9 -1
-5 -10 10 -127 -242 -120 -259 2 -8 1 -12 -3 -9 -12 7 -164 -323 -155 -337 3
-7 3 -9 -2 -5 -4 4 -41 -65 -82 -155 -64 -141 -84 -185 -101 -219 -2 -5 254
-8 568 -8 l571 0 33 73 c19 39 41 90 50 112 9 22 26 60 37 85 11 25 34 79 52
120 l32 75 750 3 750 2 22 -47 c12 -27 56 -129 98 -228 42 -99 80 -183 84
-188 4 -4 264 -6 578 -5 l570 3 -76 161 c-89 189 -90 189 -188 409 -42 94 -82
177 -89 185 -7 8 -12 18 -11 21 5 14 -147 328 -156 322 -6 -3 -7 -1 -3 5 4 7
-36 106 -88 221 -140 306 -162 351 -171 343 -5 -4 -5 -2 -2 5 8 13 -41 133
-54 133 -5 0 -8 3 -7 8 5 17 -24 82 -34 76 -7 -4 -8 -2 -4 4 4 6 -9 44 -28 84
-89 191 -146 318 -146 327 0 13 70 14 340 1 448 -21 907 -90 1364 -205 76 -19
143 -32 150 -28 6 3 8 2 3 -2 -8 -9 133 -49 141 -40 3 3 0 5 -6 5 -6 0 -59 29
-119 65 -59 36 -114 63 -121 60 -7 -3 -11 -1 -8 4 5 7 -330 181 -348 181 -3 0
-36 14 -73 31 -94 43 -173 70 -186 62 -6 -3 -7 -1 -3 5 4 7 5 12 3 12 -2 0
-62 20 -133 45 -129 45 -321 105 -359 111 -11 2 -54 12 -95 23 -332 91 -758
147 -1190 158 -726 18 -1466 -111 -2153 -375 -137 -53 -365 -166 -353 -175 7
-6 4 -7 -7 -3 -10 3 -55 -9 -100 -28 -473 -194 -1169 -337 -1692 -347 -248 -4
-547 1 -675 12 -135 11 -470 54 -536 69 -22 5 -59 12 -82 14 -80 11 -407 88
-562 133 -30 9 -62 17 -70 18 -8 1 -22 5 -30 8 -50 21 -112 37 -119 32 -5 -3
-11 -1 -13 3 -1 4 -32 18 -68 29 -36 12 -103 35 -149 52 -46 17 -89 28 -95 24
-6 -3 -8 -2 -3 2 9 11 -112 58 -131 50 -7 -2 -11 -1 -8 4 8 12 -81 44 -95 35
-7 -4 -9 -3 -6 3 3 5 -8 15 -26 21 -18 5 -63 22 -102 37 -82 31 -268 93 -375
125 -41 12 -95 28 -120 36 -282 86 -736 170 -1080 200 -163 14 -624 25 -750
18z m9022 -651 c11 -27 28 -66 38 -88 10 -22 59 -137 110 -255 51 -118 101
-235 112 -260 36 -81 46 -104 79 -180 17 -41 38 -84 45 -96 8 -11 11 -24 7
-27 -9 -10 -821 -9 -827 1 -2 4 11 43 31 86 19 43 36 83 37 89 1 7 9 26 18 42
9 17 43 93 76 170 33 77 76 177 96 223 21 45 34 88 30 95 -4 6 -3 9 1 4 11
-10 57 91 49 106 -4 7 -3 9 1 4 5 -4 22 24 38 63 16 38 31 70 34 70 2 0 13
-21 25 -47z m-8083 -439 c150 -34 253 -117 293 -235 23 -67 21 -200 -3 -255
-10 -24 -17 -44 -14 -44 2 0 -6 -12 -18 -26 -106 -125 -181 -164 -352 -184
-110 -12 -592 -13 -599 -1 -7 10 -9 748 -2 759 2 4 145 6 318 4 232 -2 330 -7
377 -18z"/>
</g>
</svg>
